curl_17s
version=1
nRows=229
nColumns=3
inDegrees=yes
endheader
time	r_shoulder_elev	r_elbow_flex
0.0000	20.000000	6.927869
0.0100	20.000000	7.008127
0.0200	20.000000	7.087479
0.0300	20.000000	7.165481
0.0400	20.000000	7.241714
0.0500	20.000000	7.315782
0.0600	20.000000	7.387323
0.0700	20.000000	7.456008
0.0800	20.000000	7.521552
0.0900	20.000000	7.583711
0.1000	20.000000	7.642289
0.1100	20.000000	7.697134
0.1200	20.000000	7.748146
0.1300	20.000000	7.795268
0.1400	20.000000	7.838494
0.1500	20.000000	7.877859
0.1600	20.000000	7.913439
0.1700	20.000000	7.945350
0.1800	20.000000	7.973738
0.1900	20.000000	7.998781
0.2000	20.000000	8.020679
0.2100	20.000000	8.039654
0.2200	20.000000	8.055937
0.2300	20.000000	8.069773
0.2400	20.000000	8.081406
0.2500	20.000000	8.091084
0.2600	20.000000	8.099047
0.2700	20.000000	8.105525
0.2800	20.000000	8.110738
0.2900	20.000000	8.114886
0.3000	20.000000	8.118152
0.3100	20.000000	8.120697
0.3200	20.000000	8.122655
0.3300	20.000000	8.124137
0.3400	20.000000	8.125225
0.3500	20.000000	8.125973
0.3600	20.000000	8.126407
0.3700	20.000000	8.126523
0.3800	20.000000	8.126291
0.3900	20.000000	8.125654
0.4000	20.000000	8.124529
0.4100	20.000000	8.122812
0.4200	20.000000	8.120381
0.4300	20.000000	8.117095
0.4400	20.000000	8.112803
0.4500	20.000000	8.107346
0.4600	20.000000	8.100560
0.4700	20.000000	8.092283
0.4800	20.000000	8.082362
0.4900	20.000000	8.070650
0.5000	20.000000	8.057021
0.5100	20.000000	8.041365
0.5200	20.000000	8.023598
0.5300	20.000000	8.003666
0.5400	20.000000	7.981543
0.5500	20.000000	7.957240
0.5600	20.000000	7.930801
0.5700	20.000000	7.902309
0.5800	20.000000	7.871886
0.5900	20.000000	7.839689
0.6000	20.000000	7.805916
0.6100	20.000000	7.770800
0.6200	20.000000	7.734610
0.6300	20.000000	7.697649
0.6400	20.000000	7.660251
0.6500	20.000000	7.622778
0.6600	20.000000	7.585617
0.6700	20.000000	7.549177
0.6800	20.000000	7.513883
0.6900	20.000000	7.480175
0.7000	20.000000	7.448496
0.7100	20.000000	7.419297
0.7200	20.000000	7.393020
0.7300	20.000000	7.370100
0.7400	20.000000	7.350956
0.7500	20.000000	7.335986
0.7600	20.000000	7.325555
0.7700	20.000000	7.319999
0.7800	20.000000	7.319606
0.7900	20.000000	7.324623
0.8000	20.000000	7.335240
0.8100	20.000000	7.351590
0.8200	20.000000	7.373743
0.8300	20.000000	7.401705
0.8400	20.000000	7.435412
0.8500	20.000000	7.474728
0.8600	20.000000	7.519449
0.8700	20.000000	7.569297
0.8800	20.000000	7.623930
0.8900	20.000000	7.682935
0.9000	20.000000	7.745843
0.9100	20.000000	7.812127
0.9200	20.000000	7.881212
0.9300	20.000000	7.952483
0.9400	20.000000	8.025295
0.9500	20.000000	8.098979
0.9600	20.000000	8.172854
0.9700	20.000000	8.246240
0.9800	20.000000	8.318462
0.9900	20.000000	8.388865
1.0000	20.000000	8.456821
1.0100	20.000000	8.521739
1.0200	20.000000	8.583070
1.0300	20.000000	8.640317
1.0400	20.000000	8.693037
1.0500	20.000000	8.740851
1.0600	20.000000	8.783441
1.0700	20.000000	8.820558
1.0800	20.000000	8.852021
1.0900	20.000000	8.877716
1.1000	20.000000	8.897601
1.1100	20.000000	8.911701
1.1200	20.000000	8.920108
1.1300	20.000000	8.922978
1.1400	20.000000	8.920530
1.1500	20.000000	8.913039
1.1600	20.000000	8.900837
1.1700	20.000000	8.884305
1.1800	20.000000	8.863870
1.1900	20.000000	8.839998
1.2000	20.000000	8.813191
1.2100	20.000000	8.783978
1.2200	20.000000	8.752908
1.2300	20.000000	8.720547
1.2400	20.000000	8.687467
1.2500	20.000000	8.654238
1.2600	20.000000	8.621425
1.2700	20.000000	8.589575
1.2800	20.000000	8.559214
1.2900	20.000000	8.530837
1.3000	20.000000	8.504904
1.3100	20.000000	8.481830
1.3200	20.000000	8.461982
1.3300	20.000000	8.445673
1.3400	20.000000	8.433160
1.3500	20.000000	8.424635
1.3600	20.000000	8.420230
1.3700	20.000000	8.420007
1.3800	20.000000	8.423964
1.3900	20.000000	8.432035
1.4000	20.000000	8.444086
1.4100	20.000000	8.459924
1.4200	20.000000	8.479296
1.4300	20.000000	8.501899
1.4400	20.000000	8.527377
1.4500	20.000000	8.555338
1.4600	20.000000	8.585350
1.4700	20.000000	8.616956
1.4800	20.000000	8.649680
1.4900	20.000000	8.683033
1.5000	20.000000	8.716521
1.5100	20.000000	8.749656
1.5200	20.000000	8.781959
1.5300	20.000000	8.812973
1.5400	20.000000	8.842262
1.5500	20.000000	8.869424
1.5600	20.000000	8.894095
1.5700	20.000000	8.915952
1.5800	20.000000	8.934720
1.5900	20.000000	8.950174
1.6000	20.000000	8.962143
1.6100	20.000000	8.970514
1.6200	20.000000	8.975229
1.6300	20.000000	8.976293
1.6400	20.000000	8.973767
1.6500	20.000000	8.967773
1.6600	20.000000	8.958490
1.6700	20.000000	8.946155
1.6800	20.000000	8.931057
1.6900	20.000000	8.913535
1.7000	20.000000	8.893976
1.7100	20.000000	8.872810
1.7200	20.000000	8.850502
1.7300	20.000000	8.827552
1.7400	20.000000	8.804482
1.7500	20.000000	8.781835
1.7600	20.000000	8.760168
1.7700	20.000000	8.740040
1.7800	20.000000	8.722009
1.7900	20.000000	8.706625
1.8000	20.000000	8.694418
1.8100	20.000000	8.685895
1.8200	20.000000	8.681531
1.8300	20.000000	8.681765
1.8400	20.000000	8.686990
1.8500	20.000000	8.697551
1.8600	20.000000	8.713739
1.8700	20.000000	8.735791
1.8800	20.000000	8.763883
1.8900	20.000000	8.798134
1.9000	20.000000	8.838604
1.9100	20.000000	8.885302
1.9200	20.000000	8.938181
1.9300	20.000000	8.997153
1.9400	20.000000	9.062092
1.9500	20.000000	9.132844
1.9600	20.000000	9.209236
1.9700	20.000000	9.291092
1.9800	20.000000	9.378241
1.9900	20.000000	9.470531
2.0000	20.000000	9.567848
2.0100	20.000000	9.670123
2.0200	20.000000	9.777349
2.0300	20.000000	9.889594
2.0400	20.000000	10.007015
2.0500	20.000000	10.129867
2.0600	20.000000	10.258515
2.0700	20.000000	10.393443
2.0800	20.000000	10.535264
2.0900	20.000000	10.684723
2.1000	20.000000	10.842706
2.1100	20.000000	11.010240
2.1200	20.000000	11.188499
2.1300	20.000000	11.378800
2.1400	20.000000	11.582605
2.1500	20.000000	11.801517
2.1600	20.000000	12.037271
2.1700	20.000000	12.291732
2.1800	20.000000	12.566885
2.1900	20.000000	12.864818
2.2000	20.000000	13.187717
2.2100	20.000000	13.537845
2.2200	20.000000	13.917527
2.2300	20.000000	14.329132
2.2400	20.000000	14.775052
2.2500	20.000000	15.257681
2.2600	20.000000	15.779394
2.2700	20.000000	16.342523
2.2800	20.000000	16.949335
